<svg width="97" height="97" viewBox="0 0 97 97" fill="none" xmlns="http://www.w3.org/2000/svg">
<rect x="0.845032" y="0.778687" width="96" height="96" rx="48" fill="#00B7E6"/>
<path d="M48.845 12.7787C41.7249 12.7787 34.7647 14.89 28.8445 18.8458C22.9243 22.8015 18.3101 28.4239 15.5854 35.0021C12.8606 41.5802 12.1477 48.8186 13.5368 55.8019C14.9258 62.7852 18.3545 69.1998 23.3892 74.2345C28.4239 79.2692 34.8385 82.6979 41.8218 84.0869C48.8051 85.476 56.0435 84.7631 62.6216 82.0383C69.1998 79.3136 74.8222 74.6994 78.7779 68.7792C82.7337 62.859 84.845 55.8988 84.845 48.7787C84.835 39.234 81.0389 30.0831 74.2897 23.334C67.5406 16.5848 58.3897 12.7888 48.845 12.7787ZM62.4143 46.0094C62.0576 44.2793 61.3713 42.634 60.3927 41.1633L72.2416 29.311C76.197 34.0469 78.6124 39.8776 79.1646 46.0233L62.4143 46.0094ZM57.1527 48.7787C57.1527 50.4218 56.6655 52.028 55.7526 53.3942C54.8398 54.7604 53.5423 55.8252 52.0243 56.454C50.5062 57.0828 48.8358 57.2473 47.2243 56.9267C45.6128 56.6062 44.1325 55.815 42.9706 54.6531C41.8088 53.4913 41.0175 52.011 40.697 50.3994C40.3764 48.7879 40.5409 47.1175 41.1697 45.5995C41.7985 44.0814 42.8633 42.7839 44.2295 41.8711C45.5957 40.9582 47.2019 40.471 48.845 40.471C51.0484 40.471 53.1615 41.3463 54.7195 42.9043C56.2775 44.4622 57.1527 46.5753 57.1527 48.7787ZM48.845 79.2402C43.9514 79.2436 39.129 78.0679 34.7861 75.8127C30.4431 73.5575 26.7073 70.2891 23.8951 66.2843C21.0828 62.2795 19.2768 57.6561 18.6299 52.8054C17.983 47.9547 18.5143 43.0196 20.1788 38.4178C21.8433 33.8159 24.5919 29.6828 28.1921 26.3683C31.7923 23.0538 36.1381 20.6554 40.8616 19.3763C45.585 18.0971 50.5472 17.9747 55.3279 19.0196C60.1087 20.0644 64.5674 22.2456 68.3266 25.3787L56.4604 37.231C53.9848 35.6005 51.0513 34.8076 48.0914 34.9689C45.1315 35.1301 42.3015 36.2371 40.0177 38.1268C37.7339 40.0165 36.1168 42.5893 35.4044 45.4667C34.6919 48.3441 34.9217 51.3742 36.0599 54.1112C37.1981 56.8482 39.1847 59.1477 41.7274 60.6714C44.2701 62.1952 47.2347 62.8626 50.185 62.5757C53.1354 62.2887 55.9158 61.0625 58.1172 59.0773C60.3186 57.0922 61.8248 54.453 62.4143 51.5479H79.1785C78.4793 59.1123 74.9823 66.1436 69.3719 71.2654C63.7615 76.3873 56.4417 79.2311 48.845 79.2402Z" fill="white"/>
</svg>
