<svg width="64" height="97" viewBox="0 0 112 145" fill="none" xmlns="http://www.w3.org/2000/svg">
<path d="M85.3334 141.619C85.3334 142.327 85.0525 143.005 84.5524 143.505C84.0523 144.005 83.374 144.286 82.6668 144.286H29.3339C28.6267 144.286 27.9484 144.005 27.4483 143.505C26.9482 143.005 26.6673 142.327 26.6673 141.619C26.6673 140.912 26.9482 140.234 27.4483 139.734C27.9484 139.234 28.6267 138.953 29.3339 138.953H82.6668C83.374 138.953 84.0523 139.234 84.5524 139.734C85.0525 140.234 85.3334 140.912 85.3334 141.619ZM112 56.2868C112.02 64.7729 110.103 73.1516 106.393 80.7838C102.683 88.4161 97.2792 95.1002 90.5934 100.326C88.9638 101.579 87.6426 103.188 86.7309 105.03C85.8192 106.872 85.3411 108.898 85.3334 110.953V114.953C85.3334 117.075 84.4906 119.11 82.9903 120.61C81.49 122.11 79.4552 122.953 77.3335 122.953H34.6672C32.5455 122.953 30.5107 122.11 29.0104 120.61C27.5101 119.11 26.6673 117.075 26.6673 114.953V110.953C26.6665 108.918 26.1999 106.91 25.3032 105.083C24.4065 103.256 23.1035 101.659 21.494 100.413C14.8221 95.2195 9.41957 88.5757 5.69575 80.9848C1.97193 73.394 0.0244584 65.0552 0.000844859 56.6002C-0.16582 26.2871 24.3473 1.01402 54.667 0.287361C62.1324 0.109562 69.558 1.42667 76.5068 4.1612C83.4556 6.89573 89.7873 10.9924 95.1294 16.2103C100.471 21.4281 104.716 27.6617 107.613 34.5443C110.511 41.4268 112.002 48.8193 112 56.2868ZM106.667 56.2868C106.669 49.5294 105.319 42.8397 102.697 36.6117C100.074 30.3837 96.2328 24.7432 91.3981 20.0221C86.5633 15.301 80.833 11.5948 74.5443 9.1215C68.2557 6.64824 61.5359 5.45793 54.7803 5.62065C27.3339 6.28731 5.1808 29.1338 5.33413 56.5735C5.35866 64.2198 7.12221 71.7604 10.4913 78.6245C13.8604 85.4886 18.7468 91.4964 24.7806 96.1932C27.0303 97.9396 28.8505 100.178 30.102 102.736C31.3534 105.294 32.0028 108.105 32.0006 110.953V114.953C32.0006 115.66 32.2815 116.339 32.7816 116.839C33.2817 117.339 33.96 117.62 34.6672 117.62H77.3335C78.0407 117.62 78.719 117.339 79.2191 116.839C79.7192 116.339 80.0001 115.66 80.0001 114.953V110.953C80.0074 108.093 80.6683 105.273 81.9324 102.708C83.1964 100.143 85.0301 97.901 87.2934 96.1532C93.3466 91.4233 98.2388 85.3727 101.596 78.4634C104.954 71.554 106.688 63.9688 106.667 56.2868ZM61.7736 21.6605C61.0943 21.5817 60.4106 21.767 59.8639 22.178C59.3173 22.589 58.9494 23.1943 58.8364 23.8688C58.7234 24.5434 58.8739 25.2355 59.2568 25.8022C59.6397 26.3689 60.2257 26.7669 60.8936 26.9138C73.0202 28.9538 83.3334 39.2537 85.3734 51.4002C85.4788 52.0207 85.8003 52.5839 86.281 52.9902C86.7617 53.3965 87.3707 53.6197 88.0001 53.6202C88.1498 53.6198 88.2993 53.6064 88.4467 53.5802C89.1431 53.4612 89.7637 53.0707 90.1724 52.4945C90.5812 51.9183 90.7445 51.2034 90.6267 50.5069C89.344 43.3253 85.8903 36.7096 80.7311 31.5517C75.572 26.3937 68.9555 22.9416 61.7736 21.6605Z" fill="black"/>
</svg>
