<svg width="97" height="97" viewBox="0 0 97 97" fill="none" xmlns="http://www.w3.org/2000/svg">
<rect x="0.845032" y="0.778687" width="96" height="96" rx="48" fill="#00B7E6"/>
<path d="M75.2387 39.188C75.2413 34.7401 74.1198 30.3636 71.9784 26.4651C69.8369 22.5666 66.745 19.2726 62.9897 16.8889C59.2345 14.5052 54.9377 13.1092 50.4985 12.8305C46.0593 12.5519 41.6217 13.3996 37.5979 15.295C33.574 17.1904 30.0944 20.072 27.4823 23.6721C24.8702 27.2722 23.2102 31.4741 22.6566 35.8874C22.1031 40.3008 22.6738 44.7824 24.3159 48.9162C25.9579 53.0499 28.618 56.7016 32.0491 59.5321V82.3775C32.0488 82.7868 32.1532 83.1892 32.3523 83.5467C32.5514 83.9042 32.8386 84.2049 33.1867 84.4201C33.5347 84.6353 33.932 84.7579 34.3408 84.7763C34.7496 84.7946 35.1563 84.7082 35.5223 84.525L48.845 77.8786L62.1708 84.54C62.5049 84.6999 62.8712 84.7809 63.2416 84.777C63.8779 84.777 64.4882 84.5242 64.9382 84.0742C65.3882 83.6242 65.641 83.0139 65.641 82.3775V59.5321C68.643 57.0596 71.0605 53.9531 72.7199 50.4357C74.3793 46.9183 75.2395 43.0772 75.2387 39.188ZM27.2503 39.188C27.2503 34.9169 28.5168 30.7418 30.8896 27.1906C33.2625 23.6393 36.6351 20.8715 40.5811 19.237C44.527 17.6025 48.869 17.1749 53.058 18.0081C57.247 18.8414 61.0948 20.8981 64.1149 23.9182C67.1349 26.9382 69.1917 30.7861 70.0249 34.975C70.8581 39.164 70.4305 43.506 68.796 47.4519C67.1616 51.3979 64.3937 54.7705 60.8425 57.1434C57.2912 59.5163 53.1161 60.7828 48.845 60.7828C43.1197 60.7764 37.6307 58.4992 33.5822 54.4508C29.5338 50.4024 27.2566 44.9133 27.2503 39.188ZM60.8421 78.4965L49.9158 73.0348C49.5824 72.868 49.2148 72.7812 48.842 72.7812C48.4693 72.7812 48.1017 72.868 47.7683 73.0348L36.8479 78.4965V62.6933C40.5621 64.5917 44.6738 65.5816 48.845 65.5816C53.0163 65.5816 57.1279 64.5917 60.8421 62.6933V78.4965ZM48.845 55.9839C52.167 55.9839 55.4143 54.9989 58.1764 53.1533C60.9384 51.3077 63.0912 48.6846 64.3625 45.6155C65.6337 42.5465 65.9663 39.1693 65.3183 35.9113C64.6702 32.6532 63.0705 29.6604 60.7216 27.3115C58.3726 24.9625 55.3799 23.3628 52.1218 22.7148C48.8637 22.0667 45.4866 22.3993 42.4175 23.6706C39.3485 24.9418 36.7253 27.0946 34.8797 29.8567C33.0342 32.6187 32.0491 35.8661 32.0491 39.188C32.0539 43.6411 33.825 47.9104 36.9738 51.0592C40.1226 54.2081 44.3919 55.9792 48.845 55.9839ZM48.845 27.1909C51.2178 27.1909 53.5374 27.8945 55.5103 29.2128C57.4832 30.531 59.0209 32.4047 59.9289 34.5969C60.837 36.7891 61.0745 39.2013 60.6116 41.5285C60.1487 43.8557 59.0061 45.9934 57.3283 47.6712C55.6504 49.349 53.5128 50.4917 51.1856 50.9546C48.8584 51.4175 46.4461 51.1799 44.254 50.2719C42.0618 49.3638 40.1881 47.8261 38.8698 45.8532C37.5516 43.8803 36.8479 41.5608 36.8479 39.188C36.8479 36.0062 38.1119 32.9546 40.3618 30.7048C42.6117 28.4549 45.6632 27.1909 48.845 27.1909Z" fill="white"/>
</svg>
