<svg width="112" height="104" viewBox="0 0 112 104" fill="none" xmlns="http://www.w3.org/2000/svg">
<path d="M23.7422 26.4413H45.2146C46.3932 26.3821 74.5711 24.6223 101.387 2.13272C102.328 1.34213 103.475 0.83639 104.693 0.674901C105.912 0.513413 107.151 0.702878 108.265 1.22105C109.379 1.73922 110.323 2.56457 110.984 3.6002C111.646 4.63582 111.998 5.83872 112 7.06762V93.1727C112.008 94.4027 111.66 95.6088 111 96.6464C110.339 97.6839 109.394 98.5089 108.276 99.0225C107.419 99.4198 106.486 99.6272 105.542 99.6306C104.026 99.6275 102.56 99.0879 101.404 98.1076C78.5534 78.9385 54.7131 74.8323 47.4372 73.9982V93.5279C47.4388 94.5923 47.1773 95.6405 46.6759 96.5794C46.1745 97.5183 45.4489 98.3187 44.5635 98.9095L38.6437 102.854C37.7856 103.426 36.8028 103.785 35.7777 103.899C34.7526 104.014 33.7151 103.881 32.7518 103.512C31.7886 103.143 30.9277 102.549 30.2413 101.779C29.5548 101.009 29.0627 100.086 28.8062 99.087L22.0846 73.7452C15.9512 73.3313 10.2191 70.5484 6.10042 65.9847C1.98172 61.4211 -0.200729 55.4345 0.0145493 49.2909C0.22982 43.1473 2.82593 37.3281 7.25395 33.064C11.682 28.7998 17.5948 26.4248 23.7422 26.4413ZM47.4211 69.6553C54.7023 70.3818 79.7105 74.2942 104.154 94.8141C104.467 95.0785 104.849 95.248 105.255 95.3026C105.662 95.3571 106.075 95.2945 106.447 95.1221C106.819 94.9497 107.134 94.6746 107.355 94.3293C107.576 93.9839 107.694 93.5827 107.695 93.1727V7.06762C107.695 6.65889 107.578 6.25863 107.359 5.91364C107.14 5.56866 106.827 5.2932 106.457 5.11949C106.161 4.98629 105.84 4.91663 105.515 4.91499C105.011 4.92418 104.528 5.11532 104.154 5.45315C79.7105 25.9515 54.7023 29.8639 47.4211 30.5905V69.6553ZM32.9608 98.0161C33.0443 98.3509 33.2071 98.6607 33.4354 98.9195C33.6637 99.1782 33.9509 99.3782 34.2727 99.5027C34.5945 99.6272 34.9416 99.6725 35.2845 99.6349C35.6275 99.5972 35.9565 99.4776 36.2435 99.2862L42.1633 95.3415C42.4582 95.1447 42.6999 94.8782 42.867 94.5656C43.0341 94.253 43.1214 93.9039 43.1212 93.5494V73.7991H26.546L32.9608 98.0161ZM23.7422 69.4938H43.1158V30.7465H23.7422C18.604 30.7465 13.6762 32.7877 10.0429 36.4209C6.40968 40.0542 4.36853 44.982 4.36853 50.1202C4.36853 55.2584 6.40968 60.1861 10.0429 63.8194C13.6762 67.4527 18.604 69.4938 23.7422 69.4938Z" fill="black"/>
</svg>
