<svg width="97" height="97" viewBox="0 0 97 97" fill="none" xmlns="http://www.w3.org/2000/svg">
<rect x="0.845032" y="0.778687" width="96" height="96" rx="48" fill="#00B7E6"/>
<path d="M60.8451 12.7787C54.4819 12.7849 48.381 15.3154 43.8815 19.8149C39.382 24.3144 36.8514 30.4153 36.8453 36.7786C36.8477 37.8287 36.9179 38.8775 37.0553 39.9186L13.8854 71.5184C13.127 72.5441 12.7632 73.8085 12.8605 75.0804C12.9578 76.3523 13.5098 77.5467 14.4154 78.445L19.1787 83.2083C20.0771 84.1139 21.2714 84.6659 22.5433 84.7632C23.8152 84.8605 25.0796 84.4967 26.1053 83.7383L57.7085 60.5618C58.7483 60.7013 59.796 60.7737 60.8451 60.7785C67.2103 60.7785 73.3148 58.2499 77.8156 53.7491C82.3165 49.2482 84.845 43.1437 84.845 36.7786C84.845 30.4134 82.3165 24.3089 77.8156 19.8081C73.3148 15.3072 67.2103 12.7787 60.8451 12.7787ZM79.5117 36.7786C79.5165 40.8079 78.2109 44.7295 75.7917 47.9519L49.6752 21.832C52.4495 19.76 55.7454 18.5004 59.1945 18.1942C62.6436 17.888 66.1099 18.5472 69.2058 20.0981C72.3017 21.649 74.9052 24.0305 76.7252 26.9762C78.5452 29.922 79.51 33.3159 79.5117 36.7786ZM22.952 79.445L18.1787 74.6717L38.8919 46.4452C41.3191 51.9248 45.699 56.3047 51.1785 58.7318L22.952 79.445ZM42.1786 36.7786C42.1733 32.7502 43.479 28.8295 45.8986 25.6086L72.0118 51.7218C69.2377 53.7927 65.9424 55.0514 62.4941 55.3572C59.0459 55.663 55.5805 55.0039 52.4853 53.4536C49.39 51.9032 46.7869 49.5226 44.9668 46.5779C43.1467 43.6332 42.1813 40.2404 42.1786 36.7786ZM41.3952 56.2251C41.895 56.7252 42.1757 57.4032 42.1757 58.1101C42.1757 58.8171 41.895 59.4951 41.3952 59.9951L38.7286 62.6618C38.4834 62.9198 38.1891 63.1262 37.8629 63.2687C37.5368 63.4112 37.1854 63.4869 36.8295 63.4915C36.4736 63.4961 36.1203 63.4293 35.7906 63.2952C35.4609 63.1611 35.1614 62.9624 34.9097 62.7107C34.658 62.459 34.4593 62.1595 34.3252 61.8298C34.1911 61.5 34.1243 61.1468 34.1289 60.7909C34.1334 60.435 34.2092 60.0836 34.3517 59.7575C34.4942 59.4313 34.7006 59.137 34.9586 58.8918L37.6253 56.2251C37.8728 55.9765 38.1669 55.7791 38.4908 55.6443C38.8147 55.5096 39.1621 55.44 39.5129 55.4397C39.8637 55.4394 40.2112 55.5083 40.5353 55.6425C40.8595 55.7767 41.154 55.9736 41.4019 56.2218L41.3952 56.2251Z" fill="white"/>
</svg>
