<svg width="96" height="97" viewBox="0 0 96 97" fill="none" xmlns="http://www.w3.org/2000/svg">
<path d="M95.4134 16.8651L79.4137 0.865373C79.228 0.679423 79.0074 0.531907 78.7646 0.43126C78.5218 0.330614 78.2616 0.278809 77.9987 0.278809C77.7359 0.278809 77.4756 0.330614 77.2328 0.43126C76.9901 0.531907 76.7695 0.679423 76.5837 0.865373L28.5845 48.8646C28.3989 49.0505 28.2516 49.2711 28.1513 49.5139C28.0509 49.7567 27.9993 50.0168 27.9995 50.2796V66.2793C27.9995 66.8097 28.2102 67.3184 28.5853 67.6935C28.9604 68.0686 29.4691 68.2793 29.9995 68.2793H45.9992C46.262 68.2795 46.5221 68.2279 46.7649 68.1275C47.0077 68.0272 47.2284 67.8799 47.4142 67.6943L95.4134 19.6951C95.5994 19.5093 95.7469 19.2887 95.8475 19.046C95.9482 18.8032 96 18.5429 96 18.2801C96 18.0173 95.9482 17.757 95.8475 17.5142C95.7469 17.2714 95.5994 17.0509 95.4134 16.8651ZM45.1693 64.2793H31.9995V51.1096L65.9989 17.1101L79.1687 30.2799L45.1693 64.2793ZM81.9987 27.4499L68.8289 14.2802L77.9987 5.1103L91.1685 18.2801L81.9987 27.4499ZM91.9985 46.2796V90.2789C91.9985 91.8702 91.3664 93.3963 90.2412 94.5215C89.116 95.6467 87.5899 96.2788 85.9986 96.2788H5.9999C4.40863 96.2788 2.88253 95.6467 1.75733 94.5215C0.63213 93.3963 0 91.8702 0 90.2789V10.2802C0 8.68895 0.63213 7.16285 1.75733 6.03765C2.88253 4.91245 4.40863 4.28032 5.9999 4.28032H49.9992C50.5296 4.28032 51.0383 4.49103 51.4134 4.86609C51.7884 5.24116 51.9991 5.74986 51.9991 6.28028C51.9991 6.81071 51.7884 7.31941 51.4134 7.69447C51.0383 8.06954 50.5296 8.28025 49.9992 8.28025H5.9999C5.46948 8.28025 4.96078 8.49096 4.58571 8.86603C4.21065 9.24109 3.99993 9.74979 3.99993 10.2802V90.2789C3.99993 90.8093 4.21065 91.318 4.58571 91.6931C4.96078 92.0682 5.46948 92.2789 5.9999 92.2789H85.9986C86.529 92.2789 87.0377 92.0682 87.4128 91.6931C87.7878 91.318 87.9986 90.8093 87.9986 90.2789V46.2796C87.9986 45.7492 88.2093 45.2405 88.5843 44.8654C88.9594 44.4904 89.4681 44.2797 89.9985 44.2797C90.5289 44.2797 91.0377 44.4904 91.4127 44.8654C91.7878 45.2405 91.9985 45.7492 91.9985 46.2796Z" fill="black"/>
</svg>
