<svg width="103" height="23" viewBox="0 0 103 23" fill="none" xmlns="http://www.w3.org/2000/svg">
<path d="M9.07349 1.6245C9.15223 1.40266 9.46596 1.40266 9.54469 1.6245L11.718 7.74789C11.7506 7.83958 11.8334 7.90407 11.9302 7.91317L17.6345 8.44908C17.845 8.46885 17.9375 8.72467 17.7883 8.87442L13.3878 13.2918C13.3287 13.3511 13.3032 13.4361 13.3199 13.5181L14.6539 20.0719C14.6992 20.2945 14.4482 20.4573 14.2634 20.3251L9.4546 16.883C9.36759 16.8208 9.25059 16.8208 9.16358 16.883L4.35475 20.3251C4.17002 20.4573 3.91895 20.2945 3.96426 20.0719L5.29829 13.5181C5.31499 13.4361 5.28952 13.3511 5.23043 13.2918L0.829918 8.87442C0.680734 8.72467 0.773193 8.46885 0.983649 8.44908L6.68796 7.91317C6.78483 7.90407 6.86763 7.83958 6.90017 7.74789L9.07349 1.6245Z" fill="#0F0BC7"/>
<path d="M30.0193 1.6245C30.098 1.40266 30.4118 1.40266 30.4905 1.6245L32.6638 7.74789C32.6964 7.83958 32.7792 7.90407 32.876 7.91317L38.5803 8.44908C38.7908 8.46885 38.8833 8.72467 38.7341 8.87442L34.3336 13.2918C34.2745 13.3511 34.249 13.4361 34.2657 13.5181L35.5997 20.0719C35.645 20.2945 35.394 20.4573 35.2092 20.3251L30.4004 16.883C30.3134 16.8208 30.1964 16.8208 30.1094 16.883L25.3005 20.3251C25.1158 20.4573 24.8647 20.2945 24.9101 20.0719L26.2441 13.5181C26.2608 13.4361 26.2353 13.3511 26.1762 13.2918L21.7757 8.87442C21.6265 8.72467 21.719 8.46885 21.9294 8.44908L27.6338 7.91317C27.7306 7.90407 27.8134 7.83958 27.846 7.74789L30.0193 1.6245Z" fill="#0F0BC7"/>
<path d="M50.9652 1.6245C51.0439 1.40266 51.3576 1.40266 51.4364 1.6245L53.6097 7.74789C53.6422 7.83958 53.725 7.90407 53.8219 7.91317L59.5262 8.44908C59.7367 8.46885 59.8291 8.72467 59.6799 8.87442L55.2794 13.2918C55.2203 13.3511 55.1949 13.4361 55.2116 13.5181L56.5456 20.0719C56.5909 20.2945 56.3398 20.4573 56.1551 20.3251L51.3463 16.883C51.2593 16.8208 51.1423 16.8208 51.0552 16.883L46.2464 20.3251C46.0617 20.4573 45.8106 20.2945 45.8559 20.0719L47.19 13.5181C47.2067 13.4361 47.1812 13.3511 47.1221 13.2918L42.7216 8.87442C42.5724 8.72467 42.6649 8.46885 42.8753 8.44908L48.5796 7.91317C48.6765 7.90407 48.7593 7.83958 48.7918 7.74789L50.9652 1.6245Z" fill="#0F0BC7"/>
<path d="M71.911 1.6245C71.9897 1.40266 72.3034 1.40266 72.3822 1.6245L74.5555 7.74789C74.588 7.83958 74.6708 7.90407 74.7677 7.91317L80.472 8.44908C80.6825 8.46885 80.7749 8.72467 80.6257 8.87442L76.2252 13.2918C76.1661 13.3511 76.1407 13.4361 76.1574 13.5181L77.4914 20.0719C77.5367 20.2945 77.2856 20.4573 77.1009 20.3251L72.2921 16.883C72.2051 16.8208 72.0881 16.8207 72.001 16.883L67.1922 20.3251C67.0075 20.4573 66.7564 20.2945 66.8017 20.0719L68.1358 13.5181C68.1525 13.4361 68.127 13.3511 68.0679 13.2918L63.6674 8.87442C63.5182 8.72467 63.6107 8.46886 63.8211 8.44908L69.5254 7.91317C69.6223 7.90407 69.7051 7.83959 69.7376 7.74789L71.911 1.6245Z" fill="#0F0BC7"/>
<path d="M92.8567 1.6245C92.9354 1.40266 93.2492 1.40266 93.3279 1.6245L95.5012 7.74789C95.5338 7.83958 95.6166 7.90407 95.7134 7.91317L101.418 8.44908C101.628 8.46885 101.721 8.72467 101.571 8.87442L97.171 13.2918C97.1119 13.3511 97.0864 13.4361 97.1031 13.5181L98.4371 20.0719C98.4824 20.2945 98.2314 20.4573 98.0466 20.3251L93.2378 16.883C93.1508 16.8208 93.0338 16.8208 92.9468 16.883L88.1379 20.3251C87.9532 20.4573 87.7022 20.2945 87.7475 20.0719L89.0815 13.5181C89.0982 13.4361 89.0727 13.3511 89.0136 13.2918L84.6131 8.87442C84.4639 8.72467 84.5564 8.46885 84.7669 8.44908L90.4712 7.91317C90.568 7.90407 90.6508 7.83958 90.6834 7.74789L92.8567 1.6245Z" fill="#0F0BC7"/>
</svg>
