<svg width="112" height="82" viewBox="0 0 112 82" fill="none" xmlns="http://www.w3.org/2000/svg">
<path d="M50.4015 80.4641C50.2989 80.88 50.0672 81.2484 49.7428 81.5112C49.4184 81.7739 49.0198 81.9162 48.6098 81.9154C48.4541 81.9161 48.299 81.8966 48.148 81.8574L33.3711 77.9872C33.1655 77.9338 32.9703 77.8438 32.7938 77.7211L21.7111 69.9808C21.5092 69.8398 21.3358 69.6585 21.2007 69.4472C21.0657 69.236 20.9717 68.9989 20.9241 68.7496C20.8765 68.5003 20.8762 68.2436 20.9233 67.9942C20.9704 67.7447 21.0639 67.5075 21.1986 67.2959C21.4705 66.8687 21.8932 66.5721 22.3738 66.4714C22.6118 66.4215 22.8569 66.4212 23.0949 66.4706C23.333 66.5199 23.5595 66.6179 23.7614 66.7589L34.5763 74.3154L49.0715 78.1033C49.307 78.1665 49.5283 78.2777 49.7227 78.4306C49.9171 78.5835 50.0808 78.7751 50.2043 78.9945C50.3279 79.2138 50.4089 79.4565 50.4427 79.7087C50.4766 79.9609 50.4625 80.2176 50.4015 80.4641ZM111.712 33.6595C111.485 34.3827 111.123 35.0515 110.648 35.627C110.172 36.2025 109.592 36.6733 108.941 37.012L97.7384 42.885L72.0912 69.7535C71.8632 69.9855 71.5818 70.1519 71.2744 70.2366C70.967 70.3214 70.644 70.3216 70.3365 70.2372L40.7826 62.4969C40.5562 62.4396 40.3428 62.336 40.1546 62.1922L14.4058 42.943L3.06451 36.9975C2.41348 36.6567 1.8329 36.1849 1.35594 35.609C0.878974 35.0332 0.514962 34.3645 0.284691 33.6413C0.054419 32.918 -0.0376015 32.1543 0.0138841 31.3938C0.0653697 30.6333 0.259353 29.8908 0.584756 29.2088L12.0553 5.17521C12.3806 4.49318 12.831 3.88496 13.3807 3.38528C13.9304 2.88561 14.5686 2.50426 15.259 2.26302C15.9494 2.02179 16.6784 1.92538 17.4044 1.97932C18.1303 2.03326 18.839 2.23648 19.49 2.57738L30.3233 8.25198L55.4903 0.714869C55.8226 0.618156 56.1738 0.618156 56.5062 0.714869L81.6731 8.25198L92.5065 2.57738C93.1574 2.23648 93.8661 2.03326 94.5921 1.97932C95.318 1.92538 96.047 2.02179 96.7374 2.26302C97.4278 2.50426 98.0661 2.88561 98.6158 3.38528C99.1655 3.88496 99.6158 4.49318 99.9411 5.17521L111.412 29.2137C111.739 29.8946 111.935 30.6371 111.986 31.3978C112.038 32.1585 111.944 32.9224 111.712 33.645V33.6595ZM4.71306 33.5386L14.5351 38.681L27.6588 11.1836L17.8414 6.04116C17.6246 5.9271 17.3885 5.8589 17.1466 5.84045C16.9046 5.822 16.6616 5.85366 16.4313 5.93362C16.201 6.01358 15.988 6.14028 15.8045 6.30649C15.621 6.47269 15.4705 6.67514 15.3617 6.90227L3.89109 30.9407C3.78222 31.1678 3.71712 31.4152 3.69951 31.6687C3.68189 31.9221 3.71211 32.1768 3.78844 32.418C3.86477 32.6592 3.98571 32.8824 4.14436 33.0746C4.30301 33.2669 4.49625 33.4245 4.71306 33.5386ZM86.4756 49.1788L70.8767 36.088C62.32 44.196 51.1218 45.5263 41.9417 39.3825C41.2402 38.9166 40.6477 38.2914 40.2079 37.5532C39.7681 36.8151 39.4924 35.9828 39.401 35.1179C39.3097 34.2531 39.4051 33.3778 39.6802 32.5568C39.9553 31.7357 40.4031 30.99 40.9904 30.3747L62.0937 8.92926C62.44 8.57707 62.9041 8.38086 63.3867 8.3826H68.6694L55.9982 4.58985L31.427 11.9431L17.7214 40.6645L42.0109 58.8397L70.2072 66.2268L86.4756 49.1788ZM94.3813 40.8967L80.7172 12.2527H64.1348L43.5902 33.1322C43.3989 33.3331 43.2534 33.5766 43.1647 33.8447C43.0759 34.1128 43.0462 34.3984 43.0776 34.6803C43.1071 34.9738 43.1992 35.2566 43.3471 35.5078C43.4949 35.759 43.6948 35.9722 43.9319 36.1316C50.3738 40.4419 60.4636 41.6659 69.4637 32.1647C69.7851 31.8259 70.2148 31.6236 70.6701 31.5968C71.1253 31.5701 71.5739 31.7206 71.9296 32.0195L89.1124 46.4358L94.3813 40.8967ZM108.101 30.9407L96.6348 6.90227C96.5259 6.67514 96.3755 6.47269 96.1919 6.30649C96.0084 6.14028 95.7954 6.01358 95.5651 5.93362C95.3349 5.85366 95.0918 5.822 94.8499 5.84045C94.6079 5.8589 94.3718 5.9271 94.155 6.04116L84.3376 11.1836L97.4613 38.681L107.283 33.5386C107.5 33.4245 107.693 33.2669 107.852 33.0746C108.011 32.8824 108.132 32.6592 108.208 32.418C108.284 32.1768 108.315 31.9221 108.297 31.6687C108.279 31.4152 108.214 31.1678 108.105 30.9407H108.101Z" fill="black"/>
</svg>
